<svg data-v-423bf9ae="" xmlns="http://www.w3.org/2000/svg" viewBox="0 0 344.6169546149411 184" class="iconAboveSlogan"><!----><!----><!----><g data-v-423bf9ae="" id="8228752f-08a1-420f-a8bd-7681b4c2e147" fill="#012B3D" transform="matrix(6.12870278179688,0,0,6.12870278179688,-3.064347481938313,75.97242119060442)"><path d="M0.71 14.01L0.71 14.01Q0.62 14.01 0.56 13.96L0.56 13.96L0.56 13.96Q0.50 13.90 0.50 13.82L0.50 13.82L0.50 13.82Q0.50 13.73 0.56 13.68L0.56 13.68L0.56 13.68Q0.62 13.62 0.71 13.62L0.71 13.62L1.26 13.62L1.26 13.62Q1.40 13.62 1.51 13.51L1.51 13.51L1.51 13.51Q1.62 13.40 1.62 13.24L1.62 13.24L1.62 5.19L1.62 5.19Q1.62 5.04 1.52 4.93L1.52 4.93L1.52 4.93Q1.41 4.82 1.26 4.82L1.26 4.82L0.71 4.82L0.71 4.82Q0.63 4.82 0.57 4.75L0.57 4.75L0.57 4.75Q0.50 4.69 0.50 4.61L0.50 4.61L0.50 4.61Q0.50 4.52 0.56 4.47L0.56 4.47L0.56 4.47Q0.62 4.41 0.71 4.41L0.71 4.41L7.49 4.41L7.49 4.41Q7.63 4.41 7.74 4.53L7.74 4.53L7.74 4.53Q7.85 4.65 7.85 4.80L7.85 4.80L7.85 6.82L7.85 6.82Q7.85 6.89 7.81 6.93L7.81 6.93L7.81 6.93Q7.76 6.97 7.73 6.97L7.73 6.97L7.73 6.97Q7.63 6.97 7.57 6.82L7.57 6.82L7.57 6.82Q7.14 5.70 6.49 5.26L6.49 5.26L6.49 5.26Q5.84 4.82 4.69 4.82L4.69 4.82L3.02 4.82L3.02 8.95L3.02 8.95Q3.61 8.95 4.05 8.88L4.05 8.88L4.05 8.88Q4.49 8.81 4.88 8.51L4.88 8.51L4.88 8.51Q5.26 8.22 5.40 7.62L5.40 7.62L5.40 7.62Q5.40 7.55 5.45 7.49L5.45 7.49L5.45 7.49Q5.50 7.43 5.59 7.43L5.59 7.43L5.59 7.43Q5.66 7.43 5.72 7.49L5.72 7.49L5.72 7.49Q5.78 7.55 5.78 7.62L5.78 7.62L5.78 10.67L5.78 10.67Q5.78 10.74 5.72 10.80L5.72 10.80L5.72 10.80Q5.66 10.86 5.59 10.86L5.59 10.86L5.59 10.86Q5.50 10.86 5.45 10.81L5.45 10.81L5.45 10.81Q5.40 10.75 5.40 10.67L5.40 10.67L5.40 10.67Q5.24 9.91 4.71 9.64L4.71 9.64L4.71 9.64Q4.19 9.37 3.02 9.35L3.02 9.35L3.02 13.62L4.70 13.62L4.70 13.62Q5.96 13.62 6.70 13.17L6.70 13.17L6.70 13.17Q7.43 12.73 7.94 11.62L7.94 11.62L7.94 11.62Q7.99 11.49 8.12 11.49L8.12 11.49L8.12 11.49Q8.15 11.49 8.18 11.53L8.18 11.53L8.18 11.53Q8.22 11.56 8.22 11.62L8.22 11.62L8.12 13.65L8.12 13.65Q8.12 13.79 7.99 13.90L7.99 13.90L7.99 13.90Q7.87 14.01 7.71 14.01L7.71 14.01L0.71 14.01ZM9.39 14.01L9.39 14.01Q9.32 14.01 9.27 13.96L9.27 13.96L9.27 13.96Q9.21 13.90 9.21 13.82L9.21 13.82L9.21 13.82Q9.21 13.73 9.27 13.68L9.27 13.68L9.27 13.68Q9.32 13.62 9.39 13.62L9.39 13.62L9.80 13.62L9.80 13.62Q10.04 13.62 10.21 13.45L10.21 13.45L10.21 13.45Q10.37 13.29 10.37 13.06L10.37 13.06L10.37 5.19L10.37 5.19Q10.37 5.04 10.28 4.93L10.28 4.93L10.28 4.93Q10.18 4.82 10.02 4.82L10.02 4.82L9.39 4.82L9.39 4.82Q9.32 4.82 9.27 4.75L9.27 4.75L9.27 4.75Q9.21 4.68 9.21 4.61L9.21 4.61L9.21 4.61Q9.21 4.52 9.27 4.47L9.27 4.47L9.27 4.47Q9.32 4.41 9.39 4.41L9.39 4.41L12.78 4.41L12.78 4.41Q12.88 4.41 12.94 4.47L12.94 4.47L12.94 4.47Q12.99 4.52 12.99 4.61L12.99 4.61L12.99 4.61Q12.99 4.69 12.93 4.75L12.93 4.75L12.93 4.75Q12.87 4.82 12.78 4.82L12.78 4.82L12.15 4.82L12.15 4.82Q12.00 4.82 11.89 4.93L11.89 4.93L11.89 4.93Q11.77 5.04 11.77 5.19L11.77 5.19L11.77 13.62L13.19 13.62L13.19 13.62Q14.10 13.62 14.69 13.43L14.69 13.43L14.69 13.43Q15.27 13.23 15.67 12.80L15.67 12.80L15.67 12.80Q16.07 12.38 16.39 11.62L16.39 11.62L16.39 11.62Q16.46 11.49 16.60 11.49L16.60 11.49L16.60 11.49Q16.65 11.49 16.69 11.52L16.69 11.52L16.69 11.52Q16.73 11.55 16.72 11.62L16.72 11.62L16.62 13.65L16.62 13.65Q16.60 13.80 16.49 13.91L16.49 13.91L16.49 13.91Q16.38 14.01 16.24 14.01L16.24 14.01L9.39 14.01ZM18.33 14.01L18.33 14.01Q18.23 14.01 18.17 13.96L18.17 13.96L18.17 13.96Q18.12 13.90 18.12 13.82L18.12 13.82L18.12 13.82Q18.12 13.73 18.17 13.68L18.17 13.68L18.17 13.68Q18.23 13.62 18.33 13.62L18.33 13.62L18.93 13.62L18.93 13.62Q19.08 13.62 19.19 13.51L19.19 13.51L19.19 13.51Q19.29 13.40 19.29 13.24L19.29 13.24L19.29 5.19L19.29 5.19Q19.29 5.04 19.19 4.93L19.19 4.93L19.19 4.93Q19.08 4.82 18.93 4.82L18.93 4.82L18.33 4.82L18.33 4.82Q18.24 4.82 18.18 4.75L18.18 4.75L18.18 4.75Q18.12 4.69 18.12 4.61L18.12 4.61L18.12 4.61Q18.12 4.52 18.17 4.47L18.17 4.47L18.17 4.47Q18.23 4.41 18.33 4.41L18.33 4.41L21.69 4.41L21.69 4.41Q21.77 4.41 21.83 4.47L21.83 4.47L21.83 4.47Q21.90 4.52 21.90 4.61L21.90 4.61L21.90 4.61Q21.90 4.68 21.83 4.75L21.83 4.75L21.83 4.75Q21.77 4.82 21.69 4.82L21.69 4.82L21.06 4.82L21.06 4.82Q20.90 4.82 20.80 4.93L20.80 4.93L20.80 4.93Q20.69 5.04 20.69 5.19L20.69 5.19L20.69 13.24L20.69 13.24Q20.69 13.40 20.80 13.51L20.80 13.51L20.80 13.51Q20.92 13.62 21.06 13.62L21.06 13.62L21.69 13.62L21.69 13.62Q21.77 13.62 21.83 13.68L21.83 13.68L21.83 13.68Q21.90 13.73 21.90 13.82L21.90 13.82L21.90 13.82Q21.90 13.90 21.83 13.96L21.83 13.96L21.83 13.96Q21.77 14.01 21.69 14.01L21.69 14.01L18.33 14.01ZM24.99 14.01L24.99 14.01Q24.91 14.01 24.84 13.96L24.84 13.96L24.84 13.96Q24.77 13.90 24.77 13.82L24.77 13.82L24.77 13.82Q24.77 13.73 24.84 13.68L24.84 13.68L24.84 13.68Q24.91 13.62 24.99 13.62L24.99 13.62L25.61 13.62L25.61 13.62Q25.76 13.62 25.87 13.50L25.87 13.50L25.87 13.50Q25.98 13.38 25.98 13.24L25.98 13.24L25.98 4.82L25.98 4.82Q25.27 4.82 24.81 4.91L24.81 4.91L24.81 4.91Q24.35 5.00 23.95 5.33L23.95 5.33L23.95 5.33Q23.55 5.66 23.25 6.33L23.25 6.33L23.00 6.82L23.00 6.82Q22.99 6.85 22.96 6.91L22.96 6.91L22.96 6.91Q22.93 6.97 22.86 6.97L22.86 6.97L22.86 6.97Q22.79 6.97 22.74 6.93L22.74 6.93L22.74 6.93Q22.68 6.89 22.68 6.82L22.68 6.82L22.82 4.66L22.82 4.66Q22.82 4.55 22.90 4.48L22.90 4.48L22.90 4.48Q22.97 4.41 23.07 4.41L23.07 4.41L30.25 4.41L30.25 4.41Q30.37 4.41 30.44 4.49L30.44 4.49L30.44 4.49Q30.52 4.56 30.53 4.66L30.53 4.66L30.62 6.82L30.62 6.82Q30.62 6.89 30.58 6.93L30.58 6.93L30.58 6.93Q30.55 6.97 30.49 6.97L30.49 6.97L30.49 6.97Q30.42 6.97 30.34 6.82L30.34 6.82L30.09 6.33L30.09 6.33Q29.81 5.67 29.40 5.34L29.40 5.34L29.40 5.34Q28.99 5.01 28.53 4.91L28.53 4.91L28.53 4.91Q28.06 4.82 27.38 4.82L27.38 4.82L27.38 13.24L27.38 13.24Q27.38 13.40 27.49 13.51L27.49 13.51L27.49 13.51Q27.59 13.62 27.73 13.62L27.73 13.62L28.36 13.62L28.36 13.62Q28.43 13.62 28.50 13.68L28.50 13.68L28.50 13.68Q28.56 13.73 28.56 13.82L28.56 13.82L28.56 13.82Q28.56 13.90 28.50 13.96L28.50 13.96L28.50 13.96Q28.43 14.01 28.36 14.01L28.36 14.01L24.99 14.01ZM31.64 14.01L31.64 14.01Q31.54 14.01 31.49 13.96L31.49 13.96L31.49 13.96Q31.43 13.90 31.43 13.82L31.43 13.82L31.43 13.82Q31.43 13.73 31.49 13.68L31.49 13.68L31.49 13.68Q31.54 13.62 31.64 13.62L31.64 13.62L32.19 13.62L32.19 13.62Q32.33 13.62 32.44 13.51L32.44 13.51L32.44 13.51Q32.55 13.40 32.55 13.24L32.55 13.24L32.55 5.19L32.55 5.19Q32.55 5.04 32.45 4.93L32.45 4.93L32.45 4.93Q32.34 4.82 32.19 4.82L32.19 4.82L31.64 4.82L31.64 4.82Q31.56 4.82 31.49 4.75L31.49 4.75L31.49 4.75Q31.43 4.69 31.43 4.61L31.43 4.61L31.43 4.61Q31.43 4.52 31.49 4.47L31.49 4.47L31.49 4.47Q31.54 4.41 31.64 4.41L31.64 4.41L38.42 4.41L38.42 4.41Q38.56 4.41 38.67 4.53L38.67 4.53L38.67 4.53Q38.78 4.65 38.78 4.80L38.78 4.80L38.78 6.82L38.78 6.82Q38.78 6.89 38.73 6.93L38.73 6.93L38.73 6.93Q38.68 6.97 38.65 6.97L38.65 6.97L38.65 6.97Q38.56 6.97 38.50 6.82L38.50 6.82L38.50 6.82Q38.07 5.70 37.41 5.26L37.41 5.26L37.41 5.26Q36.76 4.82 35.62 4.82L35.62 4.82L33.95 4.82L33.95 8.95L33.95 8.95Q34.54 8.95 34.98 8.88L34.98 8.88L34.98 8.88Q35.42 8.81 35.80 8.51L35.80 8.51L35.80 8.51Q36.19 8.22 36.33 7.62L36.33 7.62L36.33 7.62Q36.33 7.55 36.38 7.49L36.38 7.49L36.38 7.49Q36.43 7.43 36.51 7.43L36.51 7.43L36.51 7.43Q36.58 7.43 36.65 7.49L36.65 7.49L36.65 7.49Q36.71 7.55 36.71 7.62L36.71 7.62L36.71 10.67L36.71 10.67Q36.71 10.74 36.65 10.80L36.65 10.80L36.65 10.80Q36.58 10.86 36.51 10.86L36.51 10.86L36.51 10.86Q36.43 10.86 36.38 10.81L36.38 10.81L36.38 10.81Q36.33 10.75 36.33 10.67L36.33 10.67L36.33 10.67Q36.16 9.91 35.64 9.64L35.64 9.64L35.64 9.64Q35.11 9.37 33.95 9.35L33.95 9.35L33.95 13.62L35.63 13.62L35.63 13.62Q36.89 13.62 37.63 13.17L37.63 13.17L37.63 13.17Q38.36 12.73 38.86 11.62L38.86 11.62L38.86 11.62Q38.92 11.49 39.05 11.49L39.05 11.49L39.05 11.49Q39.07 11.49 39.11 11.53L39.11 11.53L39.11 11.53Q39.14 11.56 39.14 11.62L39.14 11.62L39.05 13.65L39.05 13.65Q39.05 13.79 38.92 13.90L38.92 13.90L38.92 13.90Q38.79 14.01 38.64 14.01L38.64 14.01L31.64 14.01ZM46.38 14.11L46.38 14.11Q45.61 14.11 44.75 13.73L44.75 13.73L44.75 13.73Q43.89 13.34 43.89 12.15L43.89 12.15L43.89 12.15Q43.89 11.80 44.13 11.53L44.13 11.53L44.13 11.53Q44.37 11.26 44.76 11.26L44.76 11.26L44.76 11.26Q45.04 11.26 45.25 11.46L45.25 11.46L45.25 11.46Q45.46 11.66 45.46 11.93L45.46 11.93L45.46 11.93Q45.46 12.19 45.25 12.40L45.25 12.40L45.25 12.40Q45.04 12.61 44.76 12.61L44.76 12.61L44.76 12.61Q44.73 12.63 44.70 12.71L44.70 12.71L44.70 12.71Q44.67 12.80 44.67 12.92L44.67 12.92L44.67 12.92Q44.67 13.26 45.03 13.52L45.03 13.52L45.03 13.52Q45.39 13.79 46.28 13.79L46.28 13.79L46.28 13.79Q47.49 13.79 47.85 13.06L47.85 13.06L47.85 13.06Q48.22 12.33 48.22 11.61L48.22 11.61L48.22 11.61Q48.22 10.81 47.87 10.00L47.87 10.00L47.87 10.00Q47.52 9.18 46.34 9.18L46.34 9.18L46.34 9.18Q46.16 9.18 45.98 9.25L45.98 9.25L45.98 9.25Q45.75 9.31 45.64 9.31L45.64 9.31L45.64 9.31Q45.46 9.31 45.37 9.23L45.37 9.23L45.37 9.23Q45.28 9.14 45.28 9.02L45.28 9.02L45.28 9.02Q45.28 8.90 45.35 8.84L45.35 8.84L45.35 8.84Q45.43 8.78 45.64 8.78L45.64 8.78L45.64 8.78Q45.85 8.78 45.99 8.82L45.99 8.82L45.99 8.82Q46.28 8.86 46.34 8.86L46.34 8.86L46.34 8.86Q46.63 8.86 47.02 8.73L47.02 8.73L47.02 8.73Q47.40 8.60 47.74 8.14L47.74 8.14L47.74 8.14Q48.08 7.69 48.08 6.83L48.08 6.83L48.08 6.83Q48.08 5.85 47.66 5.37L47.66 5.37L47.66 5.37Q47.25 4.89 46.65 4.89L46.65 4.89L46.65 4.89Q46.10 4.89 45.69 5.05L45.69 5.05L45.69 5.05Q45.28 5.22 45.11 5.52L45.11 5.52L45.11 5.52Q45.05 5.63 45.05 5.74L45.05 5.74L45.05 5.74Q45.05 5.81 45.08 5.89L45.08 5.89L45.08 5.89Q45.32 5.96 45.48 6.15L45.48 6.15L45.48 6.15Q45.64 6.34 45.64 6.57L45.64 6.57L45.64 6.57Q45.64 6.83 45.42 7.04L45.42 7.04L45.42 7.04Q45.21 7.25 44.93 7.25L44.93 7.25L44.93 7.25Q44.66 7.25 44.45 7.04L44.45 7.04L44.45 7.04Q44.24 6.83 44.24 6.57L44.24 6.57L44.24 6.57Q44.24 6.02 44.55 5.58L44.55 5.58L44.55 5.58Q44.87 5.14 45.49 4.87L45.49 4.87L45.49 4.87Q46.10 4.61 47.00 4.61L47.00 4.61L47.00 4.61Q48.22 4.61 48.68 5.32L48.68 5.32L48.68 5.32Q49.14 6.03 49.14 6.89L49.14 6.89L49.14 6.89Q49.14 7.83 48.56 8.31L48.56 8.31L48.56 8.31Q47.98 8.79 47.26 8.99L47.26 8.99L47.26 8.99Q47.22 8.99 47.22 9.02L47.22 9.02L47.22 9.02Q47.22 9.06 47.26 9.06L47.26 9.06L47.26 9.06Q47.60 9.09 48.10 9.28L48.10 9.28L48.10 9.28Q48.59 9.48 49.04 10.03L49.04 10.03L49.04 10.03Q49.49 10.58 49.49 11.56L49.49 11.56L49.49 11.56Q49.49 12.64 48.87 13.21L48.87 13.21L48.87 13.21Q48.24 13.78 47.54 13.94L47.54 13.94L47.54 13.94Q46.84 14.11 46.38 14.11L46.38 14.11ZM53.27 14.20L53.27 14.20Q52.77 14.20 52.20 13.92L52.20 13.92L52.20 13.92Q51.63 13.65 51.22 13.01L51.22 13.01L51.22 13.01Q50.81 12.38 50.81 11.35L50.81 11.35L50.81 11.35Q50.81 10.40 51.18 9.69L51.18 9.69L51.18 9.69Q51.55 8.97 52.10 8.60L52.10 8.60L52.10 8.60Q52.65 8.22 53.16 8.22L53.16 8.22L53.16 8.22Q53.68 8.22 54.09 8.40L54.09 8.40L54.09 8.40Q54.50 8.58 54.77 8.85L54.77 8.85L54.77 8.85Q54.81 8.89 54.85 8.89L54.85 8.89L54.85 8.89Q54.96 8.89 54.96 8.76L54.96 8.76L54.96 5.21L54.96 5.21Q54.96 5.07 54.95 5.02L54.95 5.02L54.95 5.02Q54.94 4.97 54.85 4.84L54.85 4.84L54.85 4.84Q54.75 4.70 54.26 4.70L54.26 4.70L54.05 4.70L54.05 4.70Q53.97 4.70 53.92 4.66L53.92 4.66L53.92 4.66Q53.87 4.62 53.87 4.56L53.87 4.56L53.87 4.56Q53.87 4.41 54.04 4.41L54.04 4.41L55.68 4.41L55.68 4.41Q55.85 4.41 55.92 4.46L55.92 4.46L55.92 4.46Q55.99 4.51 55.99 4.63L55.99 4.63L55.99 13.24L55.99 13.24Q55.99 13.61 56.11 13.72L56.11 13.72L56.11 13.72Q56.24 13.83 56.55 13.83L56.55 13.83L56.55 13.83Q56.67 13.83 56.70 13.85L56.70 13.85L56.70 13.85Q56.73 13.86 56.73 13.93L56.73 13.93L56.73 13.93Q56.73 14.00 56.70 14.04L56.70 14.04L56.70 14.04Q56.67 14.07 56.57 14.07L56.57 14.07L55.17 14.11L55.17 14.11Q55.08 14.11 55.02 14.08L55.02 14.08L55.02 14.08Q54.96 14.06 54.96 13.96L54.96 13.96L54.96 13.37L54.96 13.37Q54.96 13.31 54.91 13.29L54.91 13.29L54.91 13.29Q54.85 13.27 54.82 13.33L54.82 13.33L54.82 13.33Q54.59 13.69 54.16 13.94L54.16 13.94L54.16 13.94Q53.73 14.20 53.27 14.20L53.27 14.20ZM53.30 13.83L53.30 13.83Q54.28 13.83 54.61 13.20L54.61 13.20L54.61 13.20Q54.94 12.56 54.96 11.97L54.96 11.97L54.96 9.76L54.95 9.73L54.95 9.73Q54.82 9.25 54.47 8.88L54.47 8.88L54.47 8.88Q54.12 8.51 53.49 8.51L53.49 8.51L53.49 8.51Q52.61 8.51 52.29 9.36L52.29 9.36L52.29 9.36Q51.97 10.21 51.97 11.30L51.97 11.30L51.97 11.30Q51.97 12.45 52.22 13.14L52.22 13.14L52.22 13.14Q52.47 13.83 53.30 13.83L53.30 13.83Z"></path></g><defs data-v-423bf9ae=""><linearGradient data-v-423bf9ae="" gradientTransform="rotate(25)" id="16530d2f-70d9-4705-ba7e-e8d838845a93" x1="0%" y1="0%" x2="100%" y2="0%"><stop data-v-423bf9ae="" offset="0%" style="stop-color: rgb(0, 118, 221); stop-opacity: 1;"></stop><stop data-v-423bf9ae="" offset="100%" style="stop-color: rgb(0, 205, 233); stop-opacity: 1;"></stop></linearGradient></defs><g data-v-423bf9ae="" id="a41de24d-7615-4ce4-8fed-f8664e87d09e" transform="matrix(1.0963577051404778,0,0,1.0963577051404778,118.18211474297611,-8.858547138098636)" stroke="none" fill="url(#16530d2f-70d9-4705-ba7e-e8d838845a93)"><path d="M50 60.84c-.18 0-.37-.05-.53-.15l-40-24.96c-.29-.19-.47-.51-.47-.85s.18-.67.47-.85l40-24.96c.32-.2.73-.2 1.06 0l40 24.96c.29.18.47.5.47.85s-.18.67-.47.85l-40 24.96c-.16.1-.35.15-.53.15zM11.89 34.88L50 58.66l38.11-23.79L50 11.09 11.89 34.88z"></path><path d="M50 91c-.18 0-.37-.05-.53-.15l-40-24.96c-.29-.19-.47-.51-.47-.85s.18-.67.47-.85l40-24.96c.32-.2.73-.2 1.06 0l40 24.96c.29.18.47.5.47.85s-.18.67-.47.85l-40 24.96c-.16.1-.35.15-.53.15zM11.89 65.04L50 88.82l38.11-23.79L50 41.25 11.89 65.04z"></path><path d="M10 66.04c-.55 0-1-.45-1-1V34.88c0-.55.45-1 1-1s1 .45 1 1v30.16c0 .55-.45 1-1 1zM50 91c-.55 0-1-.45-1-1V59.84c0-.55.45-1 1-1s1 .45 1 1V90c0 .55-.45 1-1 1zM90 66.04c-.55 0-1-.45-1-1V34.88c0-.55.45-1 1-1s1 .45 1 1v30.16c0 .55-.45 1-1 1zM50 41.07c-.55 0-1-.45-1-1V9.91c0-.55.45-1 1-1s1 .45 1 1v30.16c0 .55-.45 1-1 1z"></path></g><!----><g data-v-423bf9ae="" id="dafcad2e-eeac-4b3a-ba74-3fa00a6c508d" fill="#012B3D" transform="matrix(0.9207463066152388,0,0,0.9207463066152388,43.81223155170352,201.2578693222078)"><path d="M5.11 2.10C2.32 2.10 0.55 4.21 0.55 6.85C0.55 9.48 2.25 11.59 5.08 11.59C6.76 11.59 7.85 10.74 8.44 9.84L8.44 11.48L9.41 11.48L9.41 6.55L5.05 6.55L5.05 7.50L8.44 7.50C8.44 9.44 6.85 10.57 5.17 10.57C2.91 10.57 1.60 8.93 1.60 6.85C1.60 4.76 2.94 3.12 5.19 3.12C6.61 3.12 7.62 3.74 8.18 4.73L9.32 4.73C8.64 3.18 7.10 2.10 5.11 2.10ZM25.07 3.22L25.07 2.21L18.26 2.21L18.26 11.48L25.07 11.48L25.07 10.47L19.31 10.47L19.31 7.35L24.46 7.35L24.46 6.33L19.31 6.33L19.31 3.22ZM40.35 2.21L32.83 2.21L32.83 3.22L36.06 3.22L36.06 11.48L37.11 11.48L37.11 3.22L40.35 3.22ZM64.23 3.70L66.74 11.48L67.93 11.48L70.81 2.21L69.71 2.21L67.33 10.00L64.83 2.21L63.63 2.21L61.14 10.00L58.76 2.21L57.65 2.21L60.54 11.48L61.73 11.48ZM85.51 2.21L85.51 6.33L80.12 6.33L80.12 2.21L79.07 2.21L79.07 11.48L80.12 11.48L80.12 7.35L85.51 7.35L85.51 11.48L86.56 11.48L86.56 2.21ZM99.99 2.21L98.67 2.21L94.74 11.48L95.90 11.48L97.03 8.79L101.63 8.79L102.76 11.48L103.92 11.48ZM97.44 7.83L99.33 3.30L101.22 7.83ZM117.85 2.21L110.33 2.21L110.33 3.22L113.57 3.22L113.57 11.48L114.62 11.48L114.62 3.22L117.85 3.22ZM139.96 7.81L143.84 2.21L142.56 2.21L139.43 6.72L136.29 2.21L135.02 2.21L138.91 7.81L138.91 11.48L139.96 11.48ZM155.58 2.10C152.77 2.10 150.88 4.21 150.88 6.85C150.88 9.48 152.77 11.59 155.58 11.59C158.40 11.59 160.29 9.48 160.29 6.85C160.29 4.21 158.40 2.10 155.58 2.10ZM155.58 10.57C153.33 10.57 151.93 8.93 151.93 6.85C151.93 4.76 153.33 3.12 155.58 3.12C157.84 3.12 159.24 4.76 159.24 6.85C159.24 8.93 157.84 10.57 155.58 10.57ZM175.69 2.21L175.69 7.52C175.69 9.67 174.26 10.57 172.79 10.57C171.32 10.57 169.90 9.67 169.90 7.52L169.90 2.21L168.85 2.21L168.85 7.49C168.85 9.95 170.48 11.59 172.79 11.59C175.11 11.59 176.74 9.94 176.74 7.49L176.74 2.21ZM202.69 3.22L202.69 2.21L195.87 2.21L195.87 11.48L202.69 11.48L202.69 10.47L196.92 10.47L196.92 7.35L202.08 7.35L202.08 6.33L196.92 6.33L196.92 3.22ZM218.62 2.21L217.29 2.21L214.54 5.85L211.79 2.21L210.46 2.21L213.91 6.69L210.21 11.48L211.54 11.48L214.54 7.50L217.55 11.48L218.88 11.48L215.18 6.69ZM228.02 8.18L231.14 8.18C233.11 8.18 234.33 7.03 234.33 5.19C234.33 3.37 233.11 2.21 231.14 2.21L226.97 2.21L226.97 11.48L228.02 11.48ZM231.07 3.21C232.53 3.21 233.28 3.96 233.28 5.19C233.28 6.44 232.53 7.20 231.07 7.20L228.02 7.20L228.02 3.21ZM249.58 3.22L249.58 2.21L242.76 2.21L242.76 11.48L249.58 11.48L249.58 10.47L243.81 10.47L243.81 7.35L248.96 7.35L248.96 6.33L243.81 6.33L243.81 3.22ZM262.08 10.57C259.83 10.57 258.57 8.93 258.57 6.85C258.57 4.76 259.83 3.12 262.08 3.12C263.61 3.12 264.61 3.85 265.09 4.98L266.20 4.98C265.61 3.29 264.10 2.10 262.00 2.10C259.21 2.10 257.52 4.21 257.52 6.85C257.52 9.48 259.21 11.59 262.00 11.59C264.10 11.59 265.61 10.40 266.20 8.71L265.09 8.71C264.61 9.84 263.61 10.57 262.08 10.57ZM281.26 2.21L273.74 2.21L273.74 3.22L276.98 3.22L276.98 11.48L278.03 11.48L278.03 3.22L281.26 3.22Z"></path></g></svg>